<?xml version="1.0" encoding="utf-8"?>
<!-- Generator: Adobe Illustrator 15.0.0, SVG Export Plug-In . SVG Version: 6.00 Build 0)  -->
<!DOCTYPE svg PUBLIC "-//W3C//DTD SVG 1.1//EN" "http://www.w3.org/Graphics/SVG/1.1/DTD/svg11.dtd">
<svg version="1.1" id="Capa_1" xmlns="http://www.w3.org/2000/svg" xmlns:xlink="http://www.w3.org/1999/xlink" x="0px" y="0px"
	 width="250px" height="30.458px" viewBox="0 0 250 30.458" enable-background="new 0 0 250 30.458" xml:space="preserve">
<g>
	<g>
		<path fill="#FFFFFF" d="M245.245,2.797c0.258,0.002,0.659,0.034,0.771,0.326l1.01,2.683c0.137,0.368-0.105,0.65-0.543,0.65
			l-4.433,0.001c-3.827,0-7.608,2.417-7.608,6.903c0,4.488,4.074,7.584,7.904,7.584l4.186-0.007l1.674-0.004
			c0.258,0.001,0.641,0.039,0.748,0.331l1.01,2.686c0.139,0.365-0.105,0.646-0.543,0.646l-1.895,0.013h-5.918
			c-6.344,0.06-11.252-4.51-11.412-11.25c-0.16-6.771,5.953-10.558,11.121-10.558L245.245,2.797z"/>
		<path fill="#FFFFFF" d="M212.086,11.876l12.207-0.001c-0.109-3.51-2.855-5.559-5.771-5.575
			C214.913,6.279,212.665,8.532,212.086,11.876z M228.131,15.002c0.031,0.292-0.203,0.502-0.578,0.502l-0.18,0.004l-15.26,0.008
			c0.668,3.288,3.166,5.41,6.738,5.421c2.088,0.007,7.11,0.006,7.11,0.006l0.447,0.001c0.258,0.004,0.639,0.04,0.748,0.331
			l1.01,2.685c0.14,0.369-0.104,0.649-0.543,0.649l-1.651,0.009l-5.154-0.012c0,0-1.625-0.035-1.896-0.035
			c-5.541,0-10.231-3.568-11.094-9.053h-1.297l-0.689,0.003c-0.432,0-0.67-0.282-0.534-0.65l0.994-2.682
			c0.049-0.128,0.146-0.208,0.264-0.256l0.213-0.057c0.092-0.014,0.182-0.018,0.262-0.018l0.771,0.002
			c0.754-5.513,4.946-9.178,10.494-9.178c4.248,0,6.766,1.358,8.646,4.708c0.532,0.951,1.248,3.443,1.185,7.551L228.131,15.002z"/>
		<path fill="#FFFFFF" d="M205.27,24.399h-1.953c-3.936,0-6.209-2.623-6.209-6.777V1.167c0-0.78,0.15-1.303,0.832-1.135l2.354,0.586
			c0.705,0.198,0.662,0.606,0.662,1.036v0.479c0,0-0.065,0.692,0.563,0.692h1.125c0.258,0,0.642,0.039,0.75,0.333l1.01,2.682
			c0.138,0.368-0.153,0.66-0.594,0.66h-2.219c-0.643,0-0.637,0.334-0.637,0.663v10.94c0,1.836,0.809,2.528,2.506,2.614l1.672-0.006
			c0.26,0.004,0.641,0.041,0.752,0.332l1.008,2.683c0.137,0.368-0.145,0.671-0.582,0.671L205.27,24.399z"/>
		<path fill="#FFFFFF" d="M178.557,11.876l12.209-0.001c-0.111-3.51-2.854-5.559-5.771-5.575
			C181.385,6.279,179.135,8.532,178.557,11.876z M194.602,15.002c0.031,0.292-0.201,0.502-0.576,0.502l-0.182,0.004l-15.258,0.008
			c0.666,3.288,3.164,5.41,6.736,5.421c2.09,0.007,7.113,0.006,7.113,0.006l0.444,0.001c0.259,0.004,0.64,0.04,0.75,0.331
			l1.009,2.685c0.139,0.369-0.105,0.649-0.541,0.649l-1.652,0.009l-5.156-0.012c0,0-1.623-0.035-1.895-0.035
			c-5.539,0-10.23-3.568-11.09-9.053h-1.302l-0.688,0.003c-0.431,0-0.67-0.282-0.533-0.65l0.992-2.682
			c0.049-0.129,0.147-0.208,0.266-0.257l0.213-0.056c0.092-0.014,0.182-0.018,0.262-0.018l0.771,0.002
			c0.754-5.513,4.945-9.178,10.492-9.178c4.25,0,6.766,1.358,8.647,4.708c0.533,0.951,1.248,3.443,1.185,7.551L194.602,15.002z"/>
		<path fill="#FFFFFF" d="M149.314,24.609V11.352c0-5.51,5.306-8.6,10.422-8.6c5.117,0,9.841,3.09,9.841,8.6v13.121h-3.849V11.352
			c0-3.236-3.235-4.927-5.992-4.927c-2.754,0-6.573,1.691-6.573,4.927v13.257H149.314z"/>
		<path fill="#FFFFFF" d="M135.736,2.821c6.138,0,11.488,4.488,11.488,10.999c0,6.513-5.352,10.999-11.488,10.999
			s-11.489-4.486-11.489-10.999C124.247,7.309,129.6,2.821,135.736,2.821z M135.736,21.124c4.199,0,7.244-2.994,7.244-7.304
			c0-4.311-3.045-7.303-7.244-7.303c-4.198,0-7.243,2.992-7.243,7.303C128.493,18.129,131.538,21.124,135.736,21.124z"/>
	</g>
	<path fill="#FFFFFF" d="M117.246,20.75h1.443c0.258,0.002,0.639,0.039,0.749,0.332l1.009,2.682c0.138,0.369-0.106,0.65-0.542,0.65
		h-9.021h-1.443c-0.257-0.002-0.639-0.039-0.749-0.33l-1.008-2.684c-0.138-0.367,0.104-0.65,0.542-0.65H117.246z"/>
	<path fill="#008ED8" d="M117.246,12.095h1.443c0.258,0.002,0.639,0.04,0.749,0.332l1.009,2.682
		c0.138,0.369-0.106,0.651-0.542,0.651h-9.021h-1.443c-0.257-0.002-0.639-0.041-0.749-0.331l-1.008-2.683
		c-0.138-0.368,0.104-0.65,0.542-0.65h9.02V12.095z"/>
	<path fill="#FBA90F" d="M117.246,3.439h1.443c0.258,0.001,0.639,0.04,0.749,0.332l1.009,2.682c0.138,0.368-0.106,0.65-0.542,0.65
		h-9.021h-1.443c-0.257-0.001-0.639-0.04-0.749-0.331l-1.008-2.682c-0.138-0.369,0.104-0.651,0.542-0.651H117.246z"/>
	<g>
		<path fill="#FFFFFF" d="M92.613,6.346c4.533,0,8.231,3.544,8.231,7.944c0,4.401-3.699,7.944-8.231,7.944
			c-4.533,0-8.231-3.543-8.231-7.944C84.382,9.89,88.08,6.346,92.613,6.346z M92.615,3.169c-6.396,0-11.558,4.992-11.558,11.122
			c0,6.129,5.162,11.124,11.558,11.124s11.558-4.992,11.558-11.124C104.173,8.161,99.011,3.169,92.615,3.169z"/>
		<path fill="#FFFFFF" d="M32.108,6.792c0.118,0,0.248,0.068,0.37-0.262c0.102-0.271,0.886-2.553,0.886-2.553
			s0.085-0.233-0.137-0.233l-4.552-0.003c-1.479-0.001-4.723,1.574-4.723,5.324v16.422h3.186l-0.002-16.54
			c0-1.087,1.149-2.155,2.346-2.155H32.108z"/>
		<path fill="#FFFFFF" d="M45.087,25.516c7.887,0,10.324-4.954,10.324-8.568v-13.4h-3.193v13.617c0,3.102-4.134,5.33-7.246,5.33
			c-3.205,0-6.625-2.254-6.625-5.332V3.703h-3.254V17C35.095,20.562,37.201,25.516,45.087,25.516z"/>
	</g>
	<path fill="#FFFFFF" d="M20.816,3.421c0.162,0.021,0.144,0.174,0.108,0.246C20.87,3.82,20.05,5.875,19.861,6.375
		c-0.058,0.153-0.166,0.196-0.292,0.196l-8.81-0.006c-0.563,0-1.994,0.272-2.57,0.499c-3.623,1.424-4.903,5.084-4.903,7.722
		c0,4.291,2.912,7.781,7.633,7.781c4.784,0,6.899-3.609,6.899-6.029l-0.009-4.194c0-0.053,0.005-0.176,0.158-0.176h2.989
		c0,0,0.155-0.001,0.155,0.141l-0.001,4.408c-0.28,4.046-3.218,8.927-10.313,8.927C7.59,25.644,0,23.866,0,14.356
		C0,9.329,4.147,3.428,10.479,3.428C10.51,3.422,20.816,3.421,20.816,3.421z"/>
	<path fill="#FFFFFF" d="M61.284,22.418l-0.002-6.802l-0.008-3.168c0-2.418,2.005-6.028,6.899-6.028c4.721,0,7.633,3.49,7.633,7.78
		c0,2.638-1.281,6.298-4.903,7.722c-0.576,0.227-1.519,0.498-3.165,0.498L61.284,22.418z M58.028,30.458l3.141-0.627l0.115-4.261
		c0,0,7.662-0.006,7.699-0.012c6.081,0,10.111-5.901,10.111-10.929c0-9.51-7.59-11.288-10.799-11.288
		c-7.451,0-10.318,5.386-10.318,9.458L57.972,30.37L58.028,30.458z"/>
</g>
</svg>
